<?xml version="1.0" encoding="iso-8859-1"?>
<!-- Generator: Adobe Illustrator 19.0.0, SVG Export Plug-In . SVG Version: 6.00 Build 0)  -->
<svg version="1.1" id="Capa_1" xmlns="http://www.w3.org/2000/svg" xmlns:xlink="http://www.w3.org/1999/xlink" x="0px" y="0px"
	 viewBox="0 0 336 336" style="enable-background:new 0 0 336 336;" xml:space="preserve">
<g>
	<g>
		<path fill="white" d="M168,90.48c-47.72,0-137.96,6.16-137.96,29.52s90.24,29.48,137.96,29.48c47.72,0,137.96-6.16,137.96-29.48
			S215.72,90.48,168,90.48z"/>
	</g>
</g>
<g>
	<g>
		<path fill="white" d="M336,120.24c0-28.24-86.56-43.48-168-43.48S0,92,0,120.24c0.005,1.725,0.331,3.434,0.96,5.04l17.96,86.32
			c6.12,29.4,24.64,47.64,48.36,47.64h201.44c23.72,0,42.28-18.24,48.36-47.64L335,125.28
			C335.643,123.677,335.982,121.967,336,120.24L336,120.24z M215.396,238.076c-8.52,0.034-16.043-5.551-18.476-13.716h-57.84
			c-3.136,10.129-13.89,15.798-24.02,12.662c-10.129-3.136-15.798-13.89-12.662-24.02c0.707-2.283,1.833-4.413,3.322-6.282
			c-6.606-8.295-5.237-20.374,3.058-26.98c8.295-6.606,20.374-5.237,26.98,3.058c1.489,1.869,2.615,4,3.322,6.282h57.84
			c3.136-10.129,13.89-15.798,24.02-12.662c10.129,3.136,15.798,13.89,12.662,24.02c-0.707,2.283-1.833,4.413-3.322,6.282
			c2.765,3.417,4.263,7.685,4.24,12.08l0,0C234.562,229.404,226,238.034,215.396,238.076z M168,155.68C73.72,155.68,8,137,8,120.24
			s65.72-35.48,160-35.48s160,18.68,160,35.48S262.28,155.68,168,155.68z"/>
	</g>
</g>
</svg>
